<svg width="41" height="41" viewBox="0 0 41 41" fill="none" xmlns="http://www.w3.org/2000/svg">
<path d="M20.1016 5.64185C20.1904 5.64185 20.2807 5.63237 20.3594 5.61157C20.4369 5.59106 20.5087 5.558 20.5566 5.51001C20.5767 5.48987 20.5897 5.45925 20.5996 5.427C20.6101 5.39281 20.6196 5.34877 20.6279 5.29517C20.6446 5.18775 20.6583 5.03617 20.6699 4.83521C20.6932 4.43284 20.708 3.82718 20.7178 2.96899C20.7251 2.29847 20.7292 1.78245 20.7217 1.38696C20.7142 0.992498 20.6953 0.7142 20.6572 0.518799C20.6193 0.324152 20.5603 0.200749 20.4629 0.130127C20.3667 0.0604488 20.2428 0.0500488 20.1016 0.0500488C19.8907 0.0501508 19.7274 0.136238 19.6201 0.307861V0.308838C19.5445 0.423615 19.5055 0.582832 19.4873 0.957275C19.4689 1.33595 19.4717 1.9452 19.4863 2.96899C19.4961 3.82718 19.5109 4.43284 19.5342 4.83521C19.5458 5.03619 19.5595 5.18775 19.5762 5.29517C19.5845 5.34866 19.593 5.39284 19.6035 5.427C19.6134 5.45931 19.6273 5.48987 19.6475 5.51001C19.6955 5.558 19.7672 5.59106 19.8447 5.61157C19.9232 5.63232 20.0129 5.64182 20.1016 5.64185Z" fill="#00D79B" stroke="#FF3E54" stroke-width="0.1"/>
<path d="M12.1924 7.51831C12.4496 7.75176 12.8822 7.69334 13.0811 7.39526H13.082C13.1298 7.32244 13.1792 7.25798 13.1914 7.17065C13.2037 7.08259 13.1783 6.97703 13.1064 6.81421C12.9623 6.48782 12.6132 5.89172 11.9023 4.65991C11.5462 4.05491 11.2482 3.5656 11.0244 3.22437C10.9128 3.05416 10.8187 2.92002 10.7451 2.82593C10.7083 2.77894 10.6762 2.7402 10.6484 2.71265C10.6345 2.69887 10.6203 2.68684 10.6074 2.67749C10.5953 2.66871 10.5806 2.66004 10.5645 2.65601L10.5615 2.65503C10.5001 2.64386 10.4203 2.64725 10.3418 2.65991C10.2629 2.67264 10.1806 2.69585 10.1123 2.72729L10.1113 2.72827C9.99324 2.78606 9.89854 2.8543 9.85449 2.9646C9.81099 3.07362 9.82115 3.21176 9.87891 3.39624C9.99431 3.7648 10.3153 4.36036 10.8994 5.38257C11.2019 5.90949 11.4923 6.40784 11.7168 6.78491C11.8289 6.97322 11.9243 7.13186 11.9971 7.24878C12.0335 7.30725 12.0646 7.35572 12.0889 7.39233C12.112 7.42733 12.131 7.45429 12.1436 7.46851L12.1924 7.51831Z" fill="#00D79B" stroke="#FF3E54" stroke-width="0.1"/>
<path d="M27.5947 7.65601C27.7671 7.66373 27.9461 7.60419 28.0605 7.46851H28.0615C28.1578 7.35693 28.3519 7.05048 28.5859 6.65601C28.8213 6.25934 29.1 5.76787 29.3672 5.28296C29.6343 4.79811 29.8901 4.31863 30.0791 3.94507C30.1735 3.7584 30.2511 3.59737 30.3057 3.47534C30.3328 3.41454 30.3552 3.36299 30.3701 3.32202C30.3775 3.30168 30.3835 3.28306 30.3877 3.26733C30.3917 3.25241 30.3945 3.23578 30.3945 3.22144C30.3944 2.80523 30.0085 2.53966 29.6074 2.67651L29.6045 2.67749V2.67847C29.5888 2.68492 29.5746 2.69743 29.5654 2.70679C29.5544 2.71813 29.5413 2.73339 29.5273 2.75073C29.4994 2.78553 29.4641 2.83415 29.4229 2.89331C29.34 3.01207 29.231 3.17795 29.1055 3.37476C28.8541 3.76877 28.5347 4.28959 28.2207 4.81519C27.9066 5.34096 27.5978 5.87225 27.3672 6.28589C27.2519 6.49257 27.1551 6.66998 27.0879 6.80347C27.0543 6.87014 27.0282 6.92693 27.0098 6.97046C27.0006 6.99203 26.9925 7.01095 26.9873 7.0271C26.9826 7.04182 26.9785 7.05949 26.9785 7.07495C26.9785 7.09753 26.9849 7.12381 26.9932 7.14917C27.0017 7.17536 27.0137 7.20466 27.0283 7.23511C27.0577 7.29639 27.0986 7.36526 27.1445 7.42651C27.248 7.57273 27.4222 7.64816 27.5947 7.65601Z" fill="#00D79B" stroke="#FF3E54" stroke-width="0.1"/>
<mask id="path-4-outside-1_52_426" maskUnits="userSpaceOnUse" x="9.34473" y="7.04639" width="21" height="34" fill="black">
<rect fill="white" x="9.34473" y="7.04639" width="21" height="34"/>
<path d="M19.0579 7.71867C16.2485 7.98205 13.5659 9.62087 11.9661 12.0401C11.3516 12.9668 11.0101 13.6887 10.6687 14.83C10.3273 15.9518 10.2395 18.1076 10.4834 19.3075C10.8541 21.1121 11.5954 22.5851 12.8538 24.0386C14.1024 25.4628 14.3561 25.8042 14.639 26.409C14.8048 26.731 14.9609 27.1992 14.9901 27.4333C15.0487 27.843 15.0389 27.8625 14.7072 27.9796C14.2683 28.1357 13.683 28.7112 13.4586 29.2087C13.1952 29.794 13.2147 30.7402 13.5074 31.3743C13.7415 31.8815 14.3268 32.4473 14.717 32.5449C14.8341 32.5839 14.9316 32.6229 14.9316 32.6424C14.9316 32.6522 14.8341 32.8375 14.717 33.0424C14.5316 33.3448 14.4926 33.5594 14.4926 34.1935C14.4926 34.8763 14.5316 35.0324 14.7658 35.4421C15.0584 35.9396 15.7022 36.4663 16.1119 36.5541C16.3363 36.5932 16.3851 36.6614 16.4339 37.0614C16.5802 38.1442 17.4093 39.227 18.4921 39.7635C19.0287 40.0171 19.1652 40.0464 20.1017 40.0464C21.0089 40.0464 21.1942 40.0171 21.682 39.783C22.7453 39.2855 23.6232 38.1344 23.7695 37.0614C23.8183 36.6614 23.8671 36.5932 24.0914 36.5541C24.5012 36.4663 25.145 35.9396 25.4376 35.4421C25.6717 35.0324 25.7108 34.8763 25.7108 34.1935C25.7108 33.5594 25.6717 33.3448 25.4961 33.0424C25.3693 32.8375 25.2718 32.6522 25.2718 32.6424C25.2718 32.6229 25.3693 32.5839 25.4961 32.5449C25.8766 32.4473 26.4619 31.8815 26.696 31.3743C26.9886 30.7402 27.0082 29.794 26.7448 29.2087C26.5204 28.7112 25.9351 28.1357 25.4961 27.9796C25.1645 27.8625 25.1547 27.843 25.2133 27.4333C25.3303 26.5749 25.8083 25.8238 27.3496 24.0386C28.6177 22.5851 29.3493 21.1121 29.72 19.3075C29.9639 18.0881 29.8761 15.9616 29.5249 14.7812C28.3446 10.8305 25.184 8.16739 21.1455 7.71867C20.6285 7.66014 20.131 7.62112 20.0334 7.62112C19.9359 7.63087 19.4969 7.6699 19.0579 7.71867ZM22.4429 9.0746C25.4084 9.93303 27.7593 12.3425 28.5494 15.3665C28.8226 16.4005 28.8031 18.6149 28.5104 19.6392C28.0617 21.1999 27.5252 22.1364 26.1985 23.6484C24.7645 25.2872 24.4036 25.9311 24.0622 27.4333C24.0037 27.7064 23.9939 27.7064 23.1745 27.7064H22.3453V24.5361V21.3658H23.2037C24.2963 21.3658 24.9694 21.1707 25.4864 20.7024C26.8423 19.4831 26.5497 17.2394 24.9304 16.4395C24.6377 16.2932 24.3353 16.2444 23.75 16.2444C23.0477 16.2444 22.9111 16.2737 22.4916 16.5371C21.5162 17.1419 21.1747 17.9028 21.1747 19.4636V20.2927H20.1114H19.0579L19.0091 19.1904C18.9409 17.6784 18.6385 17.0736 17.6727 16.5078C17.2825 16.2835 17.1167 16.2444 16.4436 16.2444C15.8681 16.2444 15.5657 16.2932 15.273 16.4395C13.6537 17.2394 13.3611 19.4831 14.717 20.7024C15.234 21.1707 15.9071 21.3658 16.9996 21.3658H17.8581V24.5361V27.7064H17.0289C16.2095 27.7064 16.1997 27.7064 16.151 27.4333C15.8388 26.0091 15.4193 25.2677 13.9659 23.5996C12.0442 21.4145 11.332 19.5514 11.4491 17.0834C11.5564 14.6934 12.5124 12.6839 14.3268 11.0256C15.4096 10.0208 16.8826 9.25019 18.297 8.93803C19.292 8.71367 21.4674 8.79171 22.4429 9.0746ZM17.0387 17.4736C17.702 17.7955 17.8581 18.1369 17.8581 19.3075V20.2927H17.1557C16.2095 20.2927 15.7315 20.1464 15.3511 19.7465C14.8341 19.1904 14.8048 18.4295 15.2925 17.8442C15.7803 17.2687 16.3656 17.1419 17.0387 17.4736ZM24.5792 17.5321C25.0474 17.8833 25.223 18.2247 25.223 18.7612C25.223 19.1319 25.1645 19.3563 24.9986 19.5904C24.6475 20.0781 24.267 20.2244 23.2525 20.2732L22.3453 20.3122V19.3172C22.3453 18.4783 22.3746 18.2637 22.5404 18.0003C22.9599 17.3272 23.9841 17.0931 24.5792 17.5321ZM21.1747 24.5361V27.7064H20.1017H19.0287V24.5361V21.3658H20.1017H21.1747V24.5361ZM25.1547 29.0721C26.1107 29.6574 26.0717 30.9548 25.0767 31.4816C24.6572 31.706 24.6475 31.706 20.1017 31.706C15.5559 31.706 15.5462 31.706 15.1267 31.4816C14.1317 30.9548 14.0927 29.6574 15.0487 29.0721C15.3608 28.8868 15.5559 28.877 20.1017 28.877C24.6475 28.877 24.8426 28.8868 25.1547 29.0721ZM23.8768 32.9448C24.2573 33.1204 24.5597 33.5399 24.6475 34.0179C24.745 34.5154 24.3841 35.1592 23.8671 35.4031C23.4769 35.5982 23.2915 35.6079 20.1017 35.6079C16.9118 35.6079 16.7265 35.5982 16.3363 35.4031C15.3218 34.9153 15.3023 33.4423 16.307 32.9448C16.5997 32.8083 17.0679 32.779 20.0822 32.779C23.1062 32.779 23.5744 32.7985 23.8768 32.9448ZM22.7355 36.798C22.7355 37.0614 22.2673 37.9198 21.9551 38.2222C21.4088 38.7783 20.9309 38.9733 20.1017 38.9733C19.2725 38.9733 18.7945 38.7783 18.2483 38.2222C17.9361 37.9198 17.4679 37.0614 17.4679 36.798C17.4679 36.7102 18.0629 36.6809 20.1017 36.6809C22.1405 36.6809 22.7355 36.7102 22.7355 36.798Z"/>
</mask>
<path d="M19.0579 7.71867C16.2485 7.98205 13.5659 9.62087 11.9661 12.0401C11.3516 12.9668 11.0101 13.6887 10.6687 14.83C10.3273 15.9518 10.2395 18.1076 10.4834 19.3075C10.8541 21.1121 11.5954 22.5851 12.8538 24.0386C14.1024 25.4628 14.3561 25.8042 14.639 26.409C14.8048 26.731 14.9609 27.1992 14.9901 27.4333C15.0487 27.843 15.0389 27.8625 14.7072 27.9796C14.2683 28.1357 13.683 28.7112 13.4586 29.2087C13.1952 29.794 13.2147 30.7402 13.5074 31.3743C13.7415 31.8815 14.3268 32.4473 14.717 32.5449C14.8341 32.5839 14.9316 32.6229 14.9316 32.6424C14.9316 32.6522 14.8341 32.8375 14.717 33.0424C14.5316 33.3448 14.4926 33.5594 14.4926 34.1935C14.4926 34.8763 14.5316 35.0324 14.7658 35.4421C15.0584 35.9396 15.7022 36.4663 16.1119 36.5541C16.3363 36.5932 16.3851 36.6614 16.4339 37.0614C16.5802 38.1442 17.4093 39.227 18.4921 39.7635C19.0287 40.0171 19.1652 40.0464 20.1017 40.0464C21.0089 40.0464 21.1942 40.0171 21.682 39.783C22.7453 39.2855 23.6232 38.1344 23.7695 37.0614C23.8183 36.6614 23.8671 36.5932 24.0914 36.5541C24.5012 36.4663 25.145 35.9396 25.4376 35.4421C25.6717 35.0324 25.7108 34.8763 25.7108 34.1935C25.7108 33.5594 25.6717 33.3448 25.4961 33.0424C25.3693 32.8375 25.2718 32.6522 25.2718 32.6424C25.2718 32.6229 25.3693 32.5839 25.4961 32.5449C25.8766 32.4473 26.4619 31.8815 26.696 31.3743C26.9886 30.7402 27.0082 29.794 26.7448 29.2087C26.5204 28.7112 25.9351 28.1357 25.4961 27.9796C25.1645 27.8625 25.1547 27.843 25.2133 27.4333C25.3303 26.5749 25.8083 25.8238 27.3496 24.0386C28.6177 22.5851 29.3493 21.1121 29.72 19.3075C29.9639 18.0881 29.8761 15.9616 29.5249 14.7812C28.3446 10.8305 25.184 8.16739 21.1455 7.71867C20.6285 7.66014 20.131 7.62112 20.0334 7.62112C19.9359 7.63087 19.4969 7.6699 19.0579 7.71867ZM22.4429 9.0746C25.4084 9.93303 27.7593 12.3425 28.5494 15.3665C28.8226 16.4005 28.8031 18.6149 28.5104 19.6392C28.0617 21.1999 27.5252 22.1364 26.1985 23.6484C24.7645 25.2872 24.4036 25.9311 24.0622 27.4333C24.0037 27.7064 23.9939 27.7064 23.1745 27.7064H22.3453V24.5361V21.3658H23.2037C24.2963 21.3658 24.9694 21.1707 25.4864 20.7024C26.8423 19.4831 26.5497 17.2394 24.9304 16.4395C24.6377 16.2932 24.3353 16.2444 23.75 16.2444C23.0477 16.2444 22.9111 16.2737 22.4916 16.5371C21.5162 17.1419 21.1747 17.9028 21.1747 19.4636V20.2927H20.1114H19.0579L19.0091 19.1904C18.9409 17.6784 18.6385 17.0736 17.6727 16.5078C17.2825 16.2835 17.1167 16.2444 16.4436 16.2444C15.8681 16.2444 15.5657 16.2932 15.273 16.4395C13.6537 17.2394 13.3611 19.4831 14.717 20.7024C15.234 21.1707 15.9071 21.3658 16.9996 21.3658H17.8581V24.5361V27.7064H17.0289C16.2095 27.7064 16.1997 27.7064 16.151 27.4333C15.8388 26.0091 15.4193 25.2677 13.9659 23.5996C12.0442 21.4145 11.332 19.5514 11.4491 17.0834C11.5564 14.6934 12.5124 12.6839 14.3268 11.0256C15.4096 10.0208 16.8826 9.25019 18.297 8.93803C19.292 8.71367 21.4674 8.79171 22.4429 9.0746ZM17.0387 17.4736C17.702 17.7955 17.8581 18.1369 17.8581 19.3075V20.2927H17.1557C16.2095 20.2927 15.7315 20.1464 15.3511 19.7465C14.8341 19.1904 14.8048 18.4295 15.2925 17.8442C15.7803 17.2687 16.3656 17.1419 17.0387 17.4736ZM24.5792 17.5321C25.0474 17.8833 25.223 18.2247 25.223 18.7612C25.223 19.1319 25.1645 19.3563 24.9986 19.5904C24.6475 20.0781 24.267 20.2244 23.2525 20.2732L22.3453 20.3122V19.3172C22.3453 18.4783 22.3746 18.2637 22.5404 18.0003C22.9599 17.3272 23.9841 17.0931 24.5792 17.5321ZM21.1747 24.5361V27.7064H20.1017H19.0287V24.5361V21.3658H20.1017H21.1747V24.5361ZM25.1547 29.0721C26.1107 29.6574 26.0717 30.9548 25.0767 31.4816C24.6572 31.706 24.6475 31.706 20.1017 31.706C15.5559 31.706 15.5462 31.706 15.1267 31.4816C14.1317 30.9548 14.0927 29.6574 15.0487 29.0721C15.3608 28.8868 15.5559 28.877 20.1017 28.877C24.6475 28.877 24.8426 28.8868 25.1547 29.0721ZM23.8768 32.9448C24.2573 33.1204 24.5597 33.5399 24.6475 34.0179C24.745 34.5154 24.3841 35.1592 23.8671 35.4031C23.4769 35.5982 23.2915 35.6079 20.1017 35.6079C16.9118 35.6079 16.7265 35.5982 16.3363 35.4031C15.3218 34.9153 15.3023 33.4423 16.307 32.9448C16.5997 32.8083 17.0679 32.779 20.0822 32.779C23.1062 32.779 23.5744 32.7985 23.8768 32.9448ZM22.7355 36.798C22.7355 37.0614 22.2673 37.9198 21.9551 38.2222C21.4088 38.7783 20.9309 38.9733 20.1017 38.9733C19.2725 38.9733 18.7945 38.7783 18.2483 38.2222C17.9361 37.9198 17.4679 37.0614 17.4679 36.798C17.4679 36.7102 18.0629 36.6809 20.1017 36.6809C22.1405 36.6809 22.7355 36.7102 22.7355 36.798Z" fill="#00D79B"/>
<path d="M19.0579 7.71867C16.2485 7.98205 13.5659 9.62087 11.9661 12.0401C11.3516 12.9668 11.0101 13.6887 10.6687 14.83C10.3273 15.9518 10.2395 18.1076 10.4834 19.3075C10.8541 21.1121 11.5954 22.5851 12.8538 24.0386C14.1024 25.4628 14.3561 25.8042 14.639 26.409C14.8048 26.731 14.9609 27.1992 14.9901 27.4333C15.0487 27.843 15.0389 27.8625 14.7072 27.9796C14.2683 28.1357 13.683 28.7112 13.4586 29.2087C13.1952 29.794 13.2147 30.7402 13.5074 31.3743C13.7415 31.8815 14.3268 32.4473 14.717 32.5449C14.8341 32.5839 14.9316 32.6229 14.9316 32.6424C14.9316 32.6522 14.8341 32.8375 14.717 33.0424C14.5316 33.3448 14.4926 33.5594 14.4926 34.1935C14.4926 34.8763 14.5316 35.0324 14.7658 35.4421C15.0584 35.9396 15.7022 36.4663 16.1119 36.5541C16.3363 36.5932 16.3851 36.6614 16.4339 37.0614C16.5802 38.1442 17.4093 39.227 18.4921 39.7635C19.0287 40.0171 19.1652 40.0464 20.1017 40.0464C21.0089 40.0464 21.1942 40.0171 21.682 39.783C22.7453 39.2855 23.6232 38.1344 23.7695 37.0614C23.8183 36.6614 23.8671 36.5932 24.0914 36.5541C24.5012 36.4663 25.145 35.9396 25.4376 35.4421C25.6717 35.0324 25.7108 34.8763 25.7108 34.1935C25.7108 33.5594 25.6717 33.3448 25.4961 33.0424C25.3693 32.8375 25.2718 32.6522 25.2718 32.6424C25.2718 32.6229 25.3693 32.5839 25.4961 32.5449C25.8766 32.4473 26.4619 31.8815 26.696 31.3743C26.9886 30.7402 27.0082 29.794 26.7448 29.2087C26.5204 28.7112 25.9351 28.1357 25.4961 27.9796C25.1645 27.8625 25.1547 27.843 25.2133 27.4333C25.3303 26.5749 25.8083 25.8238 27.3496 24.0386C28.6177 22.5851 29.3493 21.1121 29.72 19.3075C29.9639 18.0881 29.8761 15.9616 29.5249 14.7812C28.3446 10.8305 25.184 8.16739 21.1455 7.71867C20.6285 7.66014 20.131 7.62112 20.0334 7.62112C19.9359 7.63087 19.4969 7.6699 19.0579 7.71867ZM22.4429 9.0746C25.4084 9.93303 27.7593 12.3425 28.5494 15.3665C28.8226 16.4005 28.8031 18.6149 28.5104 19.6392C28.0617 21.1999 27.5252 22.1364 26.1985 23.6484C24.7645 25.2872 24.4036 25.9311 24.0622 27.4333C24.0037 27.7064 23.9939 27.7064 23.1745 27.7064H22.3453V24.5361V21.3658H23.2037C24.2963 21.3658 24.9694 21.1707 25.4864 20.7024C26.8423 19.4831 26.5497 17.2394 24.9304 16.4395C24.6377 16.2932 24.3353 16.2444 23.75 16.2444C23.0477 16.2444 22.9111 16.2737 22.4916 16.5371C21.5162 17.1419 21.1747 17.9028 21.1747 19.4636V20.2927H20.1114H19.0579L19.0091 19.1904C18.9409 17.6784 18.6385 17.0736 17.6727 16.5078C17.2825 16.2835 17.1167 16.2444 16.4436 16.2444C15.8681 16.2444 15.5657 16.2932 15.273 16.4395C13.6537 17.2394 13.3611 19.4831 14.717 20.7024C15.234 21.1707 15.9071 21.3658 16.9996 21.3658H17.8581V24.5361V27.7064H17.0289C16.2095 27.7064 16.1997 27.7064 16.151 27.4333C15.8388 26.0091 15.4193 25.2677 13.9659 23.5996C12.0442 21.4145 11.332 19.5514 11.4491 17.0834C11.5564 14.6934 12.5124 12.6839 14.3268 11.0256C15.4096 10.0208 16.8826 9.25019 18.297 8.93803C19.292 8.71367 21.4674 8.79171 22.4429 9.0746ZM17.0387 17.4736C17.702 17.7955 17.8581 18.1369 17.8581 19.3075V20.2927H17.1557C16.2095 20.2927 15.7315 20.1464 15.3511 19.7465C14.8341 19.1904 14.8048 18.4295 15.2925 17.8442C15.7803 17.2687 16.3656 17.1419 17.0387 17.4736ZM24.5792 17.5321C25.0474 17.8833 25.223 18.2247 25.223 18.7612C25.223 19.1319 25.1645 19.3563 24.9986 19.5904C24.6475 20.0781 24.267 20.2244 23.2525 20.2732L22.3453 20.3122V19.3172C22.3453 18.4783 22.3746 18.2637 22.5404 18.0003C22.9599 17.3272 23.9841 17.0931 24.5792 17.5321ZM21.1747 24.5361V27.7064H20.1017H19.0287V24.5361V21.3658H20.1017H21.1747V24.5361ZM25.1547 29.0721C26.1107 29.6574 26.0717 30.9548 25.0767 31.4816C24.6572 31.706 24.6475 31.706 20.1017 31.706C15.5559 31.706 15.5462 31.706 15.1267 31.4816C14.1317 30.9548 14.0927 29.6574 15.0487 29.0721C15.3608 28.8868 15.5559 28.877 20.1017 28.877C24.6475 28.877 24.8426 28.8868 25.1547 29.0721ZM23.8768 32.9448C24.2573 33.1204 24.5597 33.5399 24.6475 34.0179C24.745 34.5154 24.3841 35.1592 23.8671 35.4031C23.4769 35.5982 23.2915 35.6079 20.1017 35.6079C16.9118 35.6079 16.7265 35.5982 16.3363 35.4031C15.3218 34.9153 15.3023 33.4423 16.307 32.9448C16.5997 32.8083 17.0679 32.779 20.0822 32.779C23.1062 32.779 23.5744 32.7985 23.8768 32.9448ZM22.7355 36.798C22.7355 37.0614 22.2673 37.9198 21.9551 38.2222C21.4088 38.7783 20.9309 38.9733 20.1017 38.9733C19.2725 38.9733 18.7945 38.7783 18.2483 38.2222C17.9361 37.9198 17.4679 37.0614 17.4679 36.798C17.4679 36.7102 18.0629 36.6809 20.1017 36.6809C22.1405 36.6809 22.7355 36.7102 22.7355 36.798Z" stroke="#FF3E54" stroke-width="0.2" mask="url(#path-4-outside-1_52_426)"/>
<path d="M7.15332 13.2068C7.17951 13.1982 7.2088 13.1862 7.23926 13.1716C7.30017 13.1424 7.36872 13.102 7.42969 13.0564L7.48145 13.0144C7.59454 12.9094 7.65407 12.7572 7.66211 12.6062C7.67126 12.4337 7.6136 12.2542 7.48242 12.1394L7.48145 12.1375C7.45413 12.1156 7.3744 12.0645 7.25879 11.9929C7.14155 11.9203 6.9832 11.8243 6.7959 11.7126C6.42136 11.4894 5.92814 11.2026 5.40625 10.905L5.40723 10.9041C4.4043 10.3247 3.81591 10.0043 3.44531 9.88159C3.25972 9.82015 3.12013 9.80583 3.00684 9.8396C2.89158 9.87398 2.81373 9.95553 2.74512 10.0623C2.6716 10.1726 2.61908 10.2774 2.63184 10.3923C2.64479 10.5077 2.7214 10.6197 2.86719 10.7488C3.15858 11.0066 3.76459 11.3682 4.86914 12.0056C5.44478 12.3373 5.97941 12.6395 6.37598 12.8591C6.574 12.9688 6.73782 13.0581 6.85547 13.1199C6.91425 13.1508 6.96239 13.1755 6.99707 13.1921C7.01413 13.2003 7.02862 13.207 7.04004 13.2117C7.04569 13.214 7.05152 13.2159 7.05664 13.2175C7.06013 13.2186 7.06915 13.2214 7.0791 13.2214C7.10169 13.2214 7.12794 13.2151 7.15332 13.2068Z" fill="#00D79B" stroke="#FF3E54" stroke-width="0.1"/>
<path d="M33.1465 13.2175C33.1516 13.2159 33.1575 13.214 33.1631 13.2117C33.1746 13.207 33.1898 13.2004 33.207 13.1921C33.2417 13.1755 33.289 13.1507 33.3477 13.1199C33.4653 13.058 33.6299 12.9689 33.8281 12.8591C34.2247 12.6395 34.7594 12.3373 35.335 12.0056C36.4391 11.3684 37.0445 11.0066 37.3359 10.7488C37.4817 10.6197 37.5593 10.5077 37.5723 10.3923C37.585 10.2776 37.5314 10.1734 37.458 10.0632L37.459 10.0623C37.3876 9.95265 37.3051 9.86983 37.1855 9.83569C37.0681 9.80222 36.9235 9.81769 36.7324 9.88159C36.4461 9.97733 36.037 10.1873 35.4229 10.5369L34.7383 10.9333C34.221 11.231 33.7355 11.5189 33.3682 11.741C33.1845 11.852 33.0298 11.9471 32.916 12.0183C32.8038 12.0885 32.7276 12.138 32.7031 12.157L32.7021 12.158C32.5735 12.2645 32.5248 12.4443 32.5391 12.614C32.5534 12.7836 32.6314 12.9568 32.7725 13.0554L32.8682 13.1199C32.9007 13.1395 32.9332 13.1569 32.9639 13.1716C32.9945 13.1863 33.0244 13.1982 33.0508 13.2068C33.0759 13.215 33.1016 13.2214 33.124 13.2214C33.1337 13.2214 33.1428 13.2187 33.1465 13.2175Z" fill="#00D79B" stroke="#FF3E54" stroke-width="0.1"/>
<path d="M2.97363 20.7131L2.97266 20.7122C3.83111 20.7024 4.43741 20.6885 4.83984 20.6653C5.04086 20.6537 5.1924 20.64 5.2998 20.6233C5.35336 20.615 5.39746 20.6064 5.43164 20.5959C5.46395 20.586 5.49451 20.5721 5.51465 20.552C5.5626 20.504 5.59473 20.4323 5.61523 20.3547C5.63601 20.2762 5.64646 20.1866 5.64648 20.0979C5.64648 20.009 5.63604 19.9187 5.61523 19.8401C5.59471 19.7626 5.56259 19.6908 5.51465 19.6428C5.49442 19.6226 5.46315 19.6097 5.43066 19.5999C5.39623 19.5894 5.35185 19.5798 5.29785 19.5715C5.18946 19.5549 5.03656 19.5411 4.83398 19.5295C4.4279 19.5063 3.81646 19.4914 2.95312 19.4817C1.91501 19.4719 1.3035 19.4694 0.928711 19.4866C0.556764 19.5036 0.40512 19.5401 0.298828 19.6184V19.6194C-0.0406498 19.8549 -0.029783 20.3546 0.310547 20.5784C0.425496 20.655 0.585011 20.6939 0.961914 20.7122C1.3406 20.7305 1.94996 20.7278 2.97363 20.7131Z" fill="#00D79B" stroke="#FF3E54" stroke-width="0.1"/>
<path d="M37.3975 20.7327C38.0264 20.7327 38.5106 20.7302 38.8828 20.718C39.2544 20.7058 39.5179 20.6838 39.7031 20.6438C39.8876 20.6039 40.0048 20.5443 40.0723 20.4485C40.1388 20.354 40.1494 20.2345 40.1494 20.0979C40.1494 19.9616 40.1394 19.8417 40.0732 19.7473C40.0059 19.6514 39.8881 19.5913 39.7021 19.552C39.5157 19.5126 39.2499 19.4915 38.874 19.4807C38.4973 19.4699 38.0066 19.4695 37.3682 19.4719C36.7385 19.4719 36.1425 19.4814 35.6895 19.4973C35.4632 19.5052 35.272 19.5151 35.1299 19.5256C35.0591 19.5309 34.9997 19.5364 34.9541 19.5422L34.8516 19.5637C34.6231 19.6564 34.5179 19.8837 34.5244 20.1038C34.531 20.3241 34.6497 20.5501 34.8818 20.6418L34.9863 20.6624C35.033 20.6682 35.094 20.6737 35.166 20.679C35.3101 20.6895 35.5026 20.6993 35.7295 20.7073C36.1838 20.7232 36.7776 20.7327 37.3975 20.7327Z" fill="#00D79B" stroke="#FF3E54" stroke-width="0.1"/>
<path d="M3.00684 30.356C3.12013 30.3897 3.25973 30.3744 3.44531 30.313C3.81591 30.1902 4.40444 29.8708 5.40723 29.2915H5.40625C5.92836 28.9939 6.42127 28.7052 6.7959 28.4819C6.9832 28.3703 7.14155 28.2752 7.25879 28.2026L7.48145 28.0581L7.48242 28.0562C7.61358 27.9414 7.67122 27.7618 7.66211 27.5894C7.65296 27.4167 7.57657 27.2426 7.42969 27.1392C7.36868 27.0935 7.30021 27.0531 7.23926 27.0239C7.20868 27.0093 7.17959 26.9964 7.15332 26.9878C7.12794 26.9795 7.10169 26.9741 7.0791 26.9741C7.06915 26.9741 7.06013 26.9769 7.05664 26.978C7.05154 26.9797 7.04567 26.9816 7.04004 26.9839C7.02861 26.9886 7.01413 26.9952 6.99707 27.0034C6.96239 27.02 6.91425 27.0438 6.85547 27.0747C6.73778 27.1365 6.57421 27.2266 6.37598 27.3364L4.86914 28.1899C3.76442 28.8275 3.15853 29.1889 2.86719 29.4468C2.72151 29.5757 2.64488 29.687 2.63184 29.8022C2.61887 29.9176 2.67125 30.0235 2.74512 30.1343C2.8136 30.2406 2.89188 30.3217 3.00684 30.356Z" fill="#00D79B" stroke="#FF3E54" stroke-width="0.1"/>
<path d="M37.1982 30.3562C37.3131 30.3221 37.3905 30.24 37.459 30.1335H37.458C37.5318 30.0228 37.5852 29.9178 37.5723 29.8025C37.5593 29.6871 37.4817 29.5761 37.3359 29.447C37.0446 29.1892 36.4392 28.8275 35.335 28.1902C34.7593 27.8584 34.2247 27.5553 33.8281 27.3357C33.6299 27.2259 33.4653 27.1368 33.3477 27.075C33.2892 27.0442 33.2416 27.0203 33.207 27.0037C33.1898 26.9954 33.1746 26.9888 33.1631 26.9841C33.1574 26.9818 33.1516 26.9789 33.1465 26.9773C33.1427 26.9761 33.1336 26.9734 33.124 26.9734C33.1017 26.9735 33.0759 26.9799 33.0508 26.988C33.0244 26.9967 32.9946 27.0095 32.9639 27.0242C32.9026 27.0535 32.8337 27.0935 32.7725 27.1394V27.1404C32.6315 27.2391 32.5533 27.4122 32.5391 27.5818C32.5249 27.7516 32.5733 27.9314 32.7021 28.0378L32.7031 28.0388C32.7278 28.058 32.8056 28.1071 32.9199 28.1775C33.0359 28.2488 33.1936 28.3442 33.3809 28.4558C33.7553 28.679 34.2506 28.9689 34.7773 29.2712L35.4639 29.6648C36.0773 30.0107 36.481 30.2174 36.7598 30.3113C36.9457 30.3738 37.0853 30.3897 37.1982 30.3562Z" fill="#00D79B" stroke="#FF3E54" stroke-width="0.1"/>
</svg>
