<svg width="40" height="40" viewBox="0 0 40 40" fill="none" xmlns="http://www.w3.org/2000/svg">
<path d="M19.3362 0.1394C19.2112 0.225338 19.0471 0.350338 18.9846 0.428463C18.9221 0.498775 18.4143 1.46753 17.8518 2.56128L16.8362 4.56909L14.5783 4.89721C12.4377 5.20971 12.3049 5.24096 12.0393 5.4519C11.5471 5.84253 11.3674 6.50659 11.594 7.03784C11.6643 7.20971 12.3205 7.91284 13.3283 8.90503L14.9533 10.491L14.5705 12.7722L14.1799 15.0613L14.3362 15.4363C14.4455 15.6863 14.6018 15.8894 14.8049 16.03C15.0862 16.2332 15.1721 16.2488 15.6252 16.2253C16.1018 16.2019 16.2424 16.1394 18.0627 15.1707L20.0002 14.1472L21.9299 15.1707C23.7346 16.1238 23.8987 16.1941 24.3752 16.2253C24.844 16.2566 24.9065 16.241 25.2033 16.03C25.4299 15.866 25.5705 15.6785 25.6721 15.4207L25.8127 15.0457L25.4299 12.7644L25.0471 10.4832L26.7033 8.85815C28.1096 7.46753 28.3674 7.17846 28.4455 6.8894C28.594 6.38159 28.4455 5.89721 28.0471 5.53003C27.6877 5.20971 27.7737 5.22534 24.9221 4.81909L23.1643 4.56909L22.1487 2.56128C21.1096 0.506588 20.9768 0.29565 20.6096 0.10815C20.3049 -0.0480995 19.6174 -0.0324745 19.3362 0.1394ZM20.8596 3.73315C21.7112 5.48315 22.0237 5.9519 22.4455 6.08471C22.5862 6.13159 23.469 6.27221 24.4143 6.40503C25.3596 6.53784 26.219 6.67065 26.3205 6.69409C26.4924 6.74096 26.3752 6.87378 25.0158 8.19409C23.7112 9.46753 23.5158 9.69409 23.4377 9.99096C23.3596 10.2957 23.3908 10.5769 23.6877 12.3582C23.883 13.4675 24.0315 14.3738 24.0158 14.3738C24.008 14.3738 23.1955 13.9519 22.2112 13.4363C20.5705 12.5769 20.383 12.4988 20.0002 12.4988C19.6096 12.4988 19.4299 12.5769 17.7971 13.4363C16.8127 13.9519 16.0002 14.3738 15.9846 14.3738C15.9768 14.3738 16.1174 13.4675 16.3127 12.3582C16.6174 10.5691 16.6408 10.2957 16.5627 9.99096C16.4846 9.69409 16.2815 9.45971 14.9768 8.19409C13.508 6.7644 13.4846 6.73315 13.7112 6.68628C13.844 6.66284 14.7033 6.53784 15.6252 6.40503C16.5471 6.27221 17.4143 6.12378 17.5549 6.08471C17.9768 5.9519 18.2971 5.48315 19.1408 3.72534C19.594 2.79565 19.9768 2.03003 20.0002 2.03003C20.0237 2.03784 20.4065 2.79565 20.8596 3.73315Z" fill="#00D79B"/>
<path d="M6.38273 2.85805C6.12492 3.11586 6.0546 3.42836 6.19523 3.75648C6.25773 3.90492 6.74992 4.4518 7.28898 4.97523C8.2421 5.91273 8.27335 5.93617 8.6171 5.93617C9.03117 5.93617 9.34367 5.67836 9.42179 5.27211C9.4921 4.8893 9.33585 4.67055 8.25773 3.60805C7.3046 2.67055 7.28117 2.65492 6.93742 2.65492C6.66398 2.65492 6.53898 2.7018 6.38273 2.85805Z" fill="#00D79B"/>
<path d="M31.7426 3.60805C30.6488 4.68617 30.5082 4.8893 30.5863 5.28773C30.6644 5.69398 30.9613 5.93617 31.391 5.93617C31.7426 5.93617 31.7582 5.92836 32.7738 4.89711C33.4613 4.20961 33.8207 3.79555 33.8441 3.64711C33.9535 3.0768 33.6176 2.65492 33.0629 2.65492C32.7191 2.65492 32.6957 2.67055 31.7426 3.60805Z" fill="#00D79B"/>
<path d="M4.4301 7.53773C4.21916 7.75648 4.14104 8.0143 4.20354 8.31898C4.21916 8.42055 4.32854 8.60023 4.4301 8.70961L4.63322 8.90492H6.18791H7.75041L7.97697 8.67836C8.15666 8.49867 8.20354 8.38148 8.20354 8.12367C8.20354 7.86586 8.15666 7.74867 7.97697 7.56898L7.75041 7.34242H6.18791H4.63322L4.4301 7.53773Z" fill="#00D79B"/>
<path d="M32.0234 7.56898C31.8438 7.74867 31.7969 7.86586 31.7969 8.12367C31.7969 8.38148 31.8438 8.49867 32.0234 8.67836L32.25 8.90492H33.8125H35.3672L35.5781 8.7018C35.8672 8.40492 35.8672 7.84242 35.5781 7.54555L35.3672 7.34242H33.8125H32.25L32.0234 7.56898Z" fill="#00D79B"/>
<path d="M7.28918 11.2643C6.75012 11.7955 6.25793 12.3424 6.19543 12.4909C5.96105 13.0455 6.32824 13.5924 6.93762 13.5924C7.28137 13.5924 7.3048 13.5768 8.25793 12.6315C9.33605 11.5768 9.4923 11.358 9.42199 10.9752C9.34387 10.569 9.03137 10.3112 8.6173 10.3112C8.27355 10.3112 8.2423 10.3346 7.28918 11.2643Z" fill="#00D79B"/>
<path d="M30.836 10.4987C30.5781 10.7409 30.4922 11.1549 30.6485 11.4518C30.7188 11.5768 31.2031 12.108 31.7422 12.6315C32.6953 13.5768 32.7188 13.5924 33.0625 13.5924C33.4766 13.5924 33.7813 13.3502 33.8594 12.9596C33.9375 12.5612 33.7344 12.2721 32.711 11.2643C31.7578 10.3346 31.7266 10.3112 31.3828 10.3112C31.125 10.3112 30.9844 10.358 30.836 10.4987Z" fill="#00D79B"/>
<path d="M11.6094 18.0143L11.4062 18.2252V21.4518V24.6862H8.48438H5.57031L5.35938 24.8893L5.15625 25.1002V28.3268V31.5612H2.78125H0.414062L0.203125 31.7643L0 31.9752V35.7799V39.5846L0.203125 39.7955L0.414062 39.9987H20H39.5859L39.7969 39.7955L40 39.5846V35.7799V31.9752L39.7969 31.7643L39.5859 31.5612H37.2188H34.8438V28.3268V25.1002L34.6406 24.8893L34.4297 24.6862H31.5156H28.5938V21.4518V18.2252L28.3906 18.0143L28.1797 17.8112H20H11.8203L11.6094 18.0143ZM27.0312 22.0299V24.6862H20H12.9688V22.0299V19.3737H20H27.0312V22.0299ZM33.2812 28.9049V31.5612H31.8672H30.4531L30.2266 31.7877C30.0469 31.9674 30 32.0846 30 32.3424C30 32.6002 30.0469 32.7174 30.2266 32.8971L30.4531 33.1237H34.4453H38.4375V35.7799V38.4362H20H1.5625V35.7799V33.1237H13.1953H24.8203L25.0312 32.9205C25.3203 32.6237 25.3203 32.0612 25.0312 31.7643L24.8203 31.5612H15.7734H6.71875V30.6237V29.6862H10.2266H13.7266L13.9375 29.483C14.2266 29.1862 14.2266 28.6237 13.9375 28.3268L13.7266 28.1237H10.2266H6.71875V27.1862V26.2487H20H33.2812V28.9049Z" fill="#00D79B"/>
<path d="M16.2969 28.3268C16.1328 28.4909 16.0938 28.608 16.0938 28.9049C16.0938 29.2018 16.1328 29.319 16.2969 29.483C16.4609 29.6471 16.5781 29.6862 16.875 29.6862C17.1719 29.6862 17.2891 29.6471 17.4531 29.483C17.7422 29.1862 17.7422 28.6237 17.4531 28.3268C17.2891 28.1627 17.1719 28.1237 16.875 28.1237C16.5781 28.1237 16.4609 28.1627 16.2969 28.3268Z" fill="#00D79B"/>
<path d="M27.148 31.7487C26.9293 31.9752 26.8355 32.2643 26.9058 32.5455C27.1011 33.3268 28.2886 33.3268 28.4839 32.5455C28.5543 32.2643 28.4605 31.9752 28.2418 31.7487C28.1011 31.608 27.9683 31.5612 27.6949 31.5612C27.4214 31.5612 27.2886 31.608 27.148 31.7487Z" fill="#00D79B"/>
</svg>
